<svg xmlns="http://www.w3.org/2000/svg" xmlns:xlink="http://www.w3.org/1999/xlink" viewBox="0 0 1533.25 1535"><defs><style>.cls-1{isolation:isolate;}.cls-2{fill:url(#未命名的渐变_70);}.cls-3{fill:none;}.cls-4{fill:url(#未命名的渐变_69);}.cls-5{fill:url(#未命名的渐变_68);}.cls-6{fill:url(#未命名的渐变_68-2);}.cls-7{fill:url(#未命名的渐变_66);}.cls-8{fill:url(#未命名的渐变_6);}.cls-9{fill:url(#未命名的渐变_5);}.cls-10{fill:url(#未命名的渐变_4);}.cls-11{fill:url(#未命名的渐变_3);}.cls-12{mix-blend-mode:multiply;}.cls-13{fill:url(#未命名的渐变_9);}</style><linearGradient id="未命名的渐变_70" x1="766.64" y1="1464.87" x2="766.64" gradientTransform="matrix(1, 0, 0, -1, 0, 1535)" gradientUnits="userSpaceOnUse"><stop offset="0" stop-color="#fff" stop-opacity="0"/><stop offset="1" stop-color="#2a3cff" stop-opacity="0.5"/></linearGradient><linearGradient id="未命名的渐变_69" x1="766.62" y1="1535" x2="766.62" y2="70.07" gradientTransform="matrix(1, 0, 0, -1, 0, 1535)" gradientUnits="userSpaceOnUse"><stop offset="0" stop-color="#fff" stop-opacity="0"/><stop offset="0.97" stop-color="#002ee9" stop-opacity="0.5"/></linearGradient><linearGradient id="未命名的渐变_68" x1="492.48" y1="1482.84" x2="1065.67" y2="51.98" xlink:href="#未命名的渐变_70"/><linearGradient id="未命名的渐变_68-2" x1="-7623.45" y1="1482.84" x2="-7050.25" y2="51.98" gradientTransform="translate(-6582.68 1535) rotate(180)" xlink:href="#未命名的渐变_70"/><linearGradient id="未命名的渐变_66" x1="766.62" y1="1530.94" x2="766.62" y2="66.01" gradientTransform="translate(0 4.06)" gradientUnits="userSpaceOnUse"><stop offset="0" stop-color="#fff" stop-opacity="0"/><stop offset="1" stop-color="#1b1464" stop-opacity="0.5"/></linearGradient><linearGradient id="未命名的渐变_6" x1="-7625.88" y1="1485.13" x2="-7032.47" y2="2.77" gradientTransform="matrix(-1, 0, 0, 1, -6582.68, 4.06)" gradientUnits="userSpaceOnUse"><stop offset="0" stop-color="#fff" stop-opacity="0"/><stop offset="1" stop-color="#abff4a" stop-opacity="0.5"/></linearGradient><linearGradient id="未命名的渐变_5" x1="-3549.95" y1="1485.13" x2="-2956.55" y2="2.77" gradientTransform="translate(4040 4.06)" gradientUnits="userSpaceOnUse"><stop offset="0" stop-color="#fff" stop-opacity="0"/><stop offset="1" stop-color="#abff4a" stop-opacity="0.5"/></linearGradient><linearGradient id="未命名的渐变_4" x1="498.96" y1="1456.55" x2="1079.83" y2="28.79" gradientTransform="translate(0 4.06)" gradientUnits="userSpaceOnUse"><stop offset="0" stop-color="#fff" stop-opacity="0"/><stop offset="1" stop-color="#ff6a3f" stop-opacity="0.5"/></linearGradient><linearGradient id="未命名的渐变_3" x1="-7620.74" y1="1454.94" x2="-7024.53" y2="29.72" gradientTransform="matrix(-1, 0, 0, 1, -6582.68, 4.06)" gradientUnits="userSpaceOnUse"><stop offset="0" stop-color="#fff" stop-opacity="0"/><stop offset="1" stop-color="#ff4a4f" stop-opacity="0.5"/></linearGradient><linearGradient id="未命名的渐变_9" x1="766.64" y1="1460.81" x2="766.64" y2="-4.06" gradientTransform="translate(0 4.06)" gradientUnits="userSpaceOnUse"><stop offset="0" stop-color="#fff" stop-opacity="0"/><stop offset="1" stop-color="#ff7d4a" stop-opacity="0.5"/></linearGradient></defs><g class="cls-1"><g id="图层_2" data-name="图层 2"><g id="图层_1-2" data-name="图层 1"><path class="cls-2" d="M1464.9,767.51c-33.45-69.8-77-137.72-125.33-201.62-89.43-118.15-195.54-222.57-285.68-299.7C979.31,204.6,876.26,125.8,766.76,70.13,657.25,125.8,554.21,204.61,479.63,266.19c-89.71,76.56-196,181.29-285.7,299.86-48.31,63.87-91.81,131.76-125.3,201.42C-9.31,929.58-33.06,1101.3,62.76,1254.4c70.94,100.93,174,167.9,289.09,211,81.23,30.44,168.45,49,254.63,59.24A1544.69,1544.69,0,0,0,766.76,1535a1482.62,1482.62,0,0,0,160.37-10.33c85.64-10.31,173.22-29,254.65-59.39,132.84-49.54,249.34-130.1,314.46-255.84C1560.82,1067,1534.73,913.16,1464.9,767.51Z"/><path class="cls-3" d="M68.63,767.47c-77.52-161-102.2-332.91-5.87-486.87,70.94-100.92,174-167.89,289.12-211,81.27-30.47,168.55-49,254.78-59.26A1543.76,1543.76,0,0,1,766.76,0,1482.9,1482.9,0,0,1,926.88,10.31c85.75,10.3,173.43,29,254.95,59.43,132.82,49.54,249.3,130.09,314.41,255.83,64.89,143.42,38.12,297.28-31.34,441.94"/><path class="cls-3" d="M351.85,1465.42c26,25.95,57,46.43,94,58.28,50.29,14.4,104.73,13.11,160.58,1"/><path class="cls-3" d="M193.93,566.05c8.33-96.91,22.8-189.34,43.41-270.74,21.48-79,55.2-166.59,114.54-225.73,26-25.94,57-46.41,94-58.28,50.69-14.45,105.21-13.08,160.76-1,53.23,11.58,107.41,33,160.1,59.81,52.69-26.8,106.88-48.23,160.12-59.82,55.54-12.1,110.05-13.47,160.74,1,37.12,11.88,68.14,32.41,94.21,58.44,59.23,59.14,92.88,146.65,114.35,225.57,20.6,81.37,35.06,173.75,43.39,270.58"/><path class="cls-3" d="M927.13,1524.67c55.79,12.12,110.19,13.39,160.49-1,37.09-11.89,68.1-32.42,94.16-58.42"/><path class="cls-4" d="M1496.24,325.57c-65.11-125.74-181.59-206.29-314.41-255.83-81.52-30.41-169.2-49.13-254.95-59.43A1482.9,1482.9,0,0,0,766.76,0a1543.76,1543.76,0,0,0-160.1,10.32C520.43,20.54,433.15,39.11,351.88,69.58c-115.11,43.13-218.18,110.1-289.12,211-96.33,154-71.65,325.83,5.87,486.87,33.66,69.91,77.27,137.78,125.28,201.26,74.82,99,160.3,187.25,235.31,256,83.42,74.07,207.29,174.19,337.52,240.23C897,1398.86,1021,1298.69,1104.29,1224.7c75.27-69.14,160.64-157.18,235.31-255.8,48.06-63.49,91.68-131.36,125.3-201.39C1534.36,622.85,1561.13,469,1496.24,325.57Z"/><path class="cls-3" d="M1339.6,968.9c-8.33,96.92-22.81,189.38-43.42,270.79-21.47,79-55.15,166.46-114.4,225.59-26.06,26-57.07,46.53-94.16,58.42-50.3,14.36-104.7,13.09-160.49,1-53-11.5-107.22-32.78-160.39-59.74-53.14,26.94-107.34,48.22-160.26,59.73-55.85,12.15-110.29,13.44-160.58-1-37-11.85-68-32.33-94-58.28-59.33-59.14-93-146.74-114.52-225.73-20.62-81.48-35.1-174-43.42-271"/><path class="cls-3" d="M351.88,69.58c26-25.94,57-46.41,94-58.28,50.69-14.45,105.21-13.08,160.76-1"/><path class="cls-3" d="M1464.9,767.51c69.83,145.65,95.92,299.46,31.34,441.93-65.12,125.74-181.62,206.3-314.46,255.84-81.43,30.37-169,49.08-254.65,59.39A1482.62,1482.62,0,0,1,766.76,1535a1544.69,1544.69,0,0,1-160.28-10.34c-86.18-10.24-173.4-28.8-254.63-59.24-115.1-43.12-218.15-110.09-289.09-211-95.82-153.1-72.07-324.82,5.87-486.93"/><path class="cls-3" d="M926.88,10.31c55.54-12.1,110.05-13.47,160.74,1,37.12,11.88,68.14,32.41,94.21,58.44"/><path class="cls-5" d="M1339.57,565.89c-8.33-96.83-22.79-189.21-43.39-270.58-21.47-78.92-55.12-166.43-114.35-225.57-81.52-30.41-169.2-49.13-254.95-59.43A1482.9,1482.9,0,0,0,766.76,0a1543.76,1543.76,0,0,0-160.1,10.32C520.43,20.54,433.15,39.11,351.88,69.58c-115.11,43.13-218.18,110.1-289.12,211-96.33,154-71.65,325.83,5.87,486.87,33.66,69.91,77.27,137.78,125.28,201.26,74.82,99,160.3,187.25,235.31,256,83.42,74.07,207.29,174.19,337.52,240.23,53.17,27,107.41,48.24,160.39,59.74,55.79,12.12,110.19,13.39,160.49-1,37.09-11.89,68.1-32.42,94.16-58.42,59.25-59.13,92.93-146.62,114.4-225.59,20.61-81.41,35.09-173.87,43.42-270.79A2394.49,2394.49,0,0,0,1339.57,565.89Z"/><path class="cls-3" d="M926.88,10.31c55.54-12.1,110.05-13.47,160.74,1,37.12,11.88,68.14,32.41,94.21,58.44,132.82,49.54,249.3,130.09,314.41,255.83,64.89,143.42,38.12,297.28-31.34,441.94-33.62,70-77.24,137.9-125.3,201.39"/><path class="cls-3" d="M766.74,1464.93c-53.14,26.94-107.34,48.22-160.26,59.73-55.85,12.15-110.29,13.44-160.58-1-37-11.85-68-32.33-94-58.28-59.33-59.14-93-146.74-114.52-225.73-20.62-81.48-35.1-174-43.42-271"/><path class="cls-3" d="M351.88,69.58c26-25.94,57-46.41,94-58.28,50.69-14.45,105.21-13.08,160.76-1"/><path class="cls-3" d="M1339.57,565.89c48.38,63.9,91.88,131.82,125.33,201.62,69.83,145.65,95.92,299.46,31.34,441.93-65.12,125.74-181.62,206.3-314.46,255.84"/><path class="cls-3" d="M927.13,1524.67A1482.62,1482.62,0,0,1,766.76,1535a1544.69,1544.69,0,0,1-160.28-10.34c-86.18-10.24-173.4-28.8-254.63-59.24-115.1-43.12-218.15-110.09-289.09-211-95.82-153.1-72.07-324.82,5.87-486.93"/><path class="cls-6" d="M193.68,565.89c8.33-96.83,22.79-189.21,43.39-270.58,21.47-78.92,55.12-166.43,114.35-225.57,81.52-30.41,169.2-49.13,255-59.43A1482.9,1482.9,0,0,1,766.49,0a1543.76,1543.76,0,0,1,160.1,10.32c86.23,10.22,173.51,28.79,254.78,59.26,115.11,43.13,218.18,110.1,289.12,211,96.33,154,71.65,325.83-5.87,486.87-33.66,69.91-77.27,137.78-125.28,201.26-74.82,99-160.3,187.25-235.31,256-83.42,74.07-207.29,174.19-337.52,240.23-53.17,27-107.41,48.24-160.39,59.74-55.79,12.12-110.19,13.39-160.49-1-37.09-11.89-68.1-32.42-94.16-58.42-59.25-59.13-92.93-146.62-114.4-225.59-20.61-81.41-35.09-173.87-43.42-270.79A2394.49,2394.49,0,0,1,193.68,565.89Z"/><path class="cls-3" d="M606.37,10.31c-55.54-12.1-110-13.47-160.74,1-37.12,11.88-68.14,32.41-94.21,58.44C218.6,119.28,102.12,199.83,37,325.57-27.88,469-1.11,622.85,68.35,767.51c33.62,70,77.24,137.9,125.3,201.39"/><path class="cls-3" d="M766.51,1464.93c53.14,26.94,107.34,48.22,160.26,59.73,55.85,12.15,110.29,13.44,160.58-1,37.05-11.85,68-32.33,94.05-58.28,59.33-59.14,93-146.74,114.52-225.73,20.62-81.48,35.1-174,43.42-271"/><path class="cls-3" d="M1181.37,69.58c-26-25.94-57-46.41-94-58.28-50.69-14.45-105.21-13.08-160.76-1"/><path class="cls-3" d="M193.68,565.89C145.3,629.79,101.8,697.71,68.35,767.51-1.48,913.16-27.57,1067,37,1209.44c65.12,125.74,181.62,206.3,314.46,255.84"/><path class="cls-3" d="M606.12,1524.67A1482.62,1482.62,0,0,0,766.49,1535a1544.69,1544.69,0,0,0,160.28-10.34c86.18-10.24,173.4-28.8,254.63-59.24,115.1-43.12,218.15-110.09,289.09-211,95.82-153.1,72.07-324.82-5.87-486.93"/><path class="cls-7" d="M1496.24,1209.43c-65.11,125.74-181.59,206.29-314.41,255.83-81.52,30.41-169.2,49.13-254.95,59.43A1482.9,1482.9,0,0,1,766.76,1535a1543.76,1543.76,0,0,1-160.1-10.32c-86.23-10.22-173.51-28.79-254.78-59.26-115.11-43.13-218.18-110.1-289.12-211-96.33-154-71.65-325.83,5.87-486.87,33.66-69.91,77.27-137.78,125.28-201.26,74.82-99,160.3-187.25,235.31-256,83.42-74.07,207.29-174.19,337.52-240.23C897,136.14,1021,236.31,1104.29,310.3c75.27,69.14,160.64,157.18,235.31,255.8,48.06,63.49,91.68,131.36,125.3,201.39C1534.36,912.15,1561.13,1066,1496.24,1209.43Z"/><path class="cls-3" d="M1339.6,566.1c-8.33-96.92-22.81-189.38-43.42-270.79-21.47-79-55.15-166.46-114.4-225.59-26.06-26-57.07-46.53-94.16-58.42-50.3-14.36-104.7-13.09-160.49-1-53,11.5-107.22,32.78-160.39,59.74C713.6,43.13,659.4,21.85,606.48,10.34,550.63-1.81,496.19-3.1,445.9,11.3c-37,11.85-68,32.33-94,58.28-59.33,59.14-93,146.74-114.52,225.73-20.62,81.48-35.1,174-43.42,271"/><path class="cls-3" d="M351.88,1465.42c26,25.94,57,46.41,94,58.28,50.69,14.45,105.21,13.08,160.76,1"/><path class="cls-3" d="M1464.9,767.49c69.83-145.65,95.92-299.46,31.34-441.93-65.12-125.74-181.62-206.3-314.46-255.84-81.43-30.37-169-49.08-254.65-59.39A1482.62,1482.62,0,0,0,766.76,0,1544.69,1544.69,0,0,0,606.48,10.34c-86.18,10.24-173.4,28.8-254.63,59.24C236.75,112.7,133.7,179.67,62.76,280.6-33.06,433.7-9.31,605.42,68.63,767.53"/><path class="cls-3" d="M926.88,1524.69c55.54,12.1,110.05,13.47,160.74-1,37.12-11.88,68.14-32.41,94.21-58.44"/><path class="cls-8" d="M193.68,969.11c8.33,96.83,22.79,189.21,43.39,270.58,21.47,78.92,55.12,166.43,114.35,225.57,81.52,30.41,169.2,49.13,255,59.43A1482.9,1482.9,0,0,0,766.49,1535a1543.76,1543.76,0,0,0,160.1-10.32c86.23-10.22,173.51-28.79,254.78-59.26,115.11-43.13,218.18-110.1,289.12-211,96.33-154,71.65-325.83-5.87-486.87-33.66-69.91-77.27-137.78-125.28-201.26-74.82-99-160.3-187.25-235.31-256-83.42-74.07-207.29-174.19-337.52-240.23-53.17-27-107.41-48.24-160.39-59.74-55.79-12.12-110.19-13.39-160.49,1-37.09,11.89-68.1,32.42-94.16,58.42-59.25,59.13-92.93,146.62-114.4,225.59C216.46,376.72,202,469.18,193.65,566.1A2394.49,2394.49,0,0,0,193.68,969.11Z"/><path class="cls-3" d="M606.37,1524.69c-55.54,12.1-110,13.47-160.74-1-37.12-11.88-68.14-32.41-94.21-58.44C218.6,1415.72,102.12,1335.17,37,1209.43-27.88,1066-1.11,912.15,68.35,767.49c33.62-70,77.24-137.9,125.3-201.39"/><path class="cls-3" d="M766.51,70.07c53.14-26.94,107.34-48.22,160.26-59.73,55.85-12.15,110.29-13.44,160.58,1,37.05,11.85,68,32.33,94.05,58.28,59.33,59.14,93,146.74,114.52,225.73,20.62,81.48,35.1,174,43.42,271"/><path class="cls-3" d="M1181.37,1465.42c-26,25.94-57,46.41-94,58.28-50.69,14.45-105.21,13.08-160.76,1"/><path class="cls-3" d="M193.68,969.11C145.3,905.21,101.8,837.29,68.35,767.49-1.48,621.84-27.57,468,37,325.56c65.12-125.74,181.62-206.3,314.46-255.84"/><path class="cls-3" d="M606.12,10.33A1482.62,1482.62,0,0,1,766.49,0,1544.69,1544.69,0,0,1,926.77,10.34c86.18,10.24,173.4,28.8,254.63,59.24,115.1,43.12,218.15,110.09,289.09,211,95.82,153.1,72.07,324.82-5.87,486.93"/><path class="cls-9" d="M1339.57,969.11c-8.33,96.83-22.79,189.21-43.39,270.58-21.47,78.92-55.12,166.43-114.35,225.57-81.52,30.41-169.2,49.13-254.95,59.43A1482.9,1482.9,0,0,1,766.76,1535a1543.76,1543.76,0,0,1-160.1-10.32c-86.23-10.22-173.51-28.79-254.78-59.26-115.11-43.13-218.18-110.1-289.12-211-96.33-154-71.65-325.83,5.87-486.87,33.66-69.91,77.27-137.78,125.28-201.26,74.82-99,160.3-187.25,235.31-256,83.42-74.07,207.29-174.19,337.52-240.23,53.17-27,107.41-48.24,160.39-59.74,55.79-12.12,110.19-13.39,160.49,1,37.09,11.89,68.1,32.42,94.16,58.42,59.25,59.13,92.93,146.62,114.4,225.59,20.61,81.41,35.09,173.87,43.42,270.79A2394.49,2394.49,0,0,1,1339.57,969.11Z"/><path class="cls-3" d="M926.88,1524.69c55.54,12.1,110.05,13.47,160.74-1,37.12-11.88,68.14-32.41,94.21-58.44,132.82-49.54,249.3-130.09,314.41-255.83,64.89-143.42,38.12-297.28-31.34-441.94-33.62-70-77.24-137.9-125.3-201.39"/><path class="cls-3" d="M766.74,70.07C713.6,43.13,659.4,21.85,606.48,10.34,550.63-1.81,496.19-3.1,445.9,11.3c-37,11.85-68,32.33-94,58.28-59.33,59.14-93,146.74-114.52,225.73-20.62,81.48-35.1,174-43.42,271"/><path class="cls-3" d="M351.88,1465.42c26,25.94,57,46.41,94,58.28,50.69,14.45,105.21,13.08,160.76,1"/><path class="cls-3" d="M1339.57,969.11c48.38-63.9,91.88-131.82,125.33-201.62,69.83-145.65,95.92-299.46,31.34-441.93-65.12-125.74-181.62-206.3-314.46-255.84"/><path class="cls-3" d="M927.13,10.33A1482.62,1482.62,0,0,0,766.76,0,1544.69,1544.69,0,0,0,606.48,10.34c-86.18,10.24-173.4,28.8-254.63,59.24C236.75,112.7,133.7,179.67,62.76,280.6-33.06,433.7-9.31,605.42,68.63,767.53"/><path class="cls-10" d="M1339.57,969.11c-8.33,96.83-22.79,189.21-43.39,270.58-21.47,78.92-55.12,166.43-114.35,225.57-81.52,30.41-169.2,49.13-254.95,59.43A1482.9,1482.9,0,0,1,766.76,1535a1543.76,1543.76,0,0,1-160.1-10.32c-86.23-10.22-173.51-28.79-254.78-59.26-115.11-43.13-218.18-110.1-289.12-211-96.33-154-71.65-325.83,5.87-486.87,33.66-69.91,77.27-137.78,125.28-201.26,74.82-99,160.3-187.25,235.31-256,83.42-74.07,207.29-174.19,337.52-240.23,53.17-27,107.41-48.24,160.39-59.74,55.79-12.12,110.19-13.39,160.49,1,37.09,11.89,68.1,32.42,94.16,58.42,59.25,59.13,92.93,146.62,114.4,225.59,20.61,81.41,35.09,173.87,43.42,270.79A2394.49,2394.49,0,0,1,1339.57,969.11Z"/><path class="cls-3" d="M926.88,1524.69c55.54,12.1,110.05,13.47,160.74-1,37.12-11.88,68.14-32.41,94.21-58.44,132.82-49.54,249.3-130.09,314.41-255.83,64.89-143.42,38.12-297.28-31.34-441.94-33.62-70-77.24-137.9-125.3-201.39"/><path class="cls-3" d="M766.74,70.07C713.6,43.13,659.4,21.85,606.48,10.34,550.63-1.81,496.19-3.1,445.9,11.3c-37,11.85-68,32.33-94,58.28-59.33,59.14-93,146.74-114.52,225.73-20.62,81.48-35.1,174-43.42,271"/><path class="cls-3" d="M351.88,1465.42c26,25.94,57,46.41,94,58.28,50.69,14.45,105.21,13.08,160.76,1"/><path class="cls-3" d="M1339.57,969.11c48.38-63.9,91.88-131.82,125.33-201.62,69.83-145.65,95.92-299.46,31.34-441.93-65.12-125.74-181.62-206.3-314.46-255.84"/><path class="cls-3" d="M927.13,10.33A1482.62,1482.62,0,0,0,766.76,0,1544.69,1544.69,0,0,0,606.48,10.34c-86.18,10.24-173.4,28.8-254.63,59.24C236.75,112.7,133.7,179.67,62.76,280.6-33.06,433.7-9.31,605.42,68.63,767.53"/><path class="cls-11" d="M193.68,969.11c8.33,96.83,22.79,189.21,43.39,270.58,21.47,78.92,55.12,166.43,114.35,225.57,81.52,30.41,169.2,49.13,255,59.43A1482.9,1482.9,0,0,0,766.49,1535a1543.76,1543.76,0,0,0,160.1-10.32c86.23-10.22,173.51-28.79,254.78-59.26,115.11-43.13,218.18-110.1,289.12-211,96.33-154,71.65-325.83-5.87-486.87-33.66-69.91-77.27-137.78-125.28-201.26-74.82-99-160.3-187.25-235.31-256-83.42-74.07-207.29-174.19-337.52-240.23-53.17-27-107.41-48.24-160.39-59.74-55.79-12.12-110.19-13.39-160.49,1-37.09,11.89-68.1,32.42-94.16,58.42-59.25,59.13-92.93,146.62-114.4,225.59C216.46,376.72,202,469.18,193.65,566.1A2394.49,2394.49,0,0,0,193.68,969.11Z"/><path class="cls-3" d="M606.37,1524.69c-55.54,12.1-110,13.47-160.74-1-37.12-11.88-68.14-32.41-94.21-58.44C218.6,1415.72,102.12,1335.17,37,1209.43-27.88,1066-1.11,912.15,68.35,767.49c33.62-70,77.24-137.9,125.3-201.39"/><path class="cls-3" d="M766.51,70.07c53.14-26.94,107.34-48.22,160.26-59.73,55.85-12.15,110.29-13.44,160.58,1,37.05,11.85,68,32.33,94.05,58.28,59.33,59.14,93,146.74,114.52,225.73,20.62,81.48,35.1,174,43.42,271"/><path class="cls-3" d="M1181.37,1465.42c-26,25.94-57,46.41-94,58.28-50.69,14.45-105.21,13.08-160.76,1"/><path class="cls-3" d="M193.68,969.11C145.3,905.21,101.8,837.29,68.35,767.49-1.48,621.84-27.57,468,37,325.56c65.12-125.74,181.62-206.3,314.46-255.84"/><path class="cls-3" d="M606.12,10.33A1482.62,1482.62,0,0,1,766.49,0,1544.69,1544.69,0,0,1,926.77,10.34c86.18,10.24,173.4,28.8,254.63,59.24,115.1,43.12,218.15,110.09,289.09,211,95.82,153.1,72.07,324.82-5.87,486.93"/><g class="cls-12"><path class="cls-13" d="M1464.9,767.49c-33.45,69.8-77,137.72-125.33,201.62-89.43,118.15-195.54,222.57-285.68,299.7-74.58,61.59-177.63,140.39-287.13,196.06-109.51-55.67-212.55-134.48-287.13-196.06-89.71-76.56-196-181.29-285.7-299.86-48.31-63.87-91.81-131.76-125.3-201.42C-9.31,605.42-33.06,433.7,62.76,280.6c70.94-100.93,174-167.9,289.09-211,81.23-30.44,168.45-49,254.63-59.24A1544.69,1544.69,0,0,1,766.76,0,1482.62,1482.62,0,0,1,927.13,10.33c85.64,10.31,173.22,29,254.65,59.39,132.84,49.54,249.34,130.1,314.46,255.84C1560.82,468,1534.73,621.84,1464.9,767.49Z"/><path class="cls-3" d="M68.63,767.53c-77.52,161-102.2,332.91-5.87,486.87,70.94,100.92,174,167.89,289.12,211,81.27,30.47,168.55,49,254.78,59.26A1543.76,1543.76,0,0,0,766.76,1535a1482.9,1482.9,0,0,0,160.12-10.31c85.75-10.3,173.43-29,254.95-59.43,132.82-49.54,249.3-130.09,314.41-255.83,64.89-143.42,38.12-297.28-31.34-441.94"/><path class="cls-3" d="M351.85,69.58c26-25.95,57-46.43,94-58.28,50.29-14.4,104.73-13.11,160.58-1"/><path class="cls-3" d="M193.93,969c8.33,96.91,22.8,189.34,43.41,270.74,21.48,79,55.2,166.59,114.54,225.73,26,25.94,57,46.41,94,58.28,50.69,14.45,105.21,13.08,160.76,1,53.23-11.58,107.41-33,160.1-59.81,52.69,26.8,106.88,48.23,160.12,59.82,55.54,12.1,110.05,13.47,160.74-1,37.12-11.88,68.14-32.41,94.21-58.44,59.23-59.14,92.88-146.65,114.35-225.57,20.6-81.37,35.06-173.75,43.39-270.58"/><path class="cls-3" d="M927.13,10.33c55.79-12.12,110.19-13.39,160.49,1,37.09,11.89,68.1,32.42,94.16,58.42"/></g><path class="cls-3" d="M766.49,0c250.12,3.46,551.37,63.49,704,280.6,203.33,325-132.47,729.74-366.46,944.1-153.35,136.15-443.39,360.38-658.39,299-121.43-39-177.65-170.31-208.57-284-69.19-273.27-69.21-671,0-944.38C268,181.66,324.18,50.17,445.64,11.3c200.26-57.11,460.08,132.77,608,254.89,250.5,213.79,630.31,647.2,416.87,988.2-152.63,217.14-453.88,277.12-704,280.61-261.32-2.84-598.81-73.29-729.48-325.57-152.75-337,201.72-737.34,442.36-943.24C627.28,144,887.14-45.8,1087.35,11.3c121.43,39,177.65,170.31,208.56,284,69.19,273.27,69.21,671,0,944.38-30.93,113.65-87.12,245.14-208.57,284-214.75,61.48-505.27-163-658.39-299C205.12,1019.1-108.09,646.26,37,325.57,167.68,73.26,505.17,2.86,766.49,0"/></g></g></g></svg>