<?xml version="1.0" encoding="utf-8"?>
<!-- Generator: Adobe Illustrator 25.3.1, SVG Export Plug-In . SVG Version: 6.00 Build 0)  -->
<svg version="1.1" id="_图层_2" xmlns="http://www.w3.org/2000/svg" xmlns:xlink="http://www.w3.org/1999/xlink" x="0px" y="0px"
	 viewBox="0 0 2736 1225" style="enable-background:new 0 0 2736 1225;" xml:space="preserve">
<style type="text/css">
	.st0{fill:#6C91D9;}
</style>
<g id="_图层_1-2">
	<g>
		<path class="st0" d="M612,1225c-33.9-0.5-92.4-3-126-7.6c-40.9,9.7-89,10.4-129.4-2.1c-26.9-9.1-56.8-26.3-76.4-47
			c-2.2-0.1-49.7-21.3-53.1-22.7C-0.5,1034.3-53.9,836.1,52.9,612.5C-53.9,388.7-0.5,190.8,227,79.4c4.4-1.3,50.2-22.7,53.1-22.7
			c19.6-20.7,49.5-37.9,76.4-47C397-2.7,445.1-2.1,486,7.6C519.2,3,578.1,0.4,611.6,0c33.8,0.5,92.8,3,126.3,7.6
			c41-9.7,89.1-10.4,129.5,2.1c26.8,9.1,56.9,26.3,76.4,47c4.6,0.8,48,20.8,53.2,22.7c227.3,111.1,281,309.4,174.1,533.1
			c106.8,223.8,53.3,421.8-174.1,533.1c-3.4,1.7-50.9,22.4-53.2,22.7c-19.6,20.7-49.5,37.9-76.4,47c-40.4,12.4-88.5,11.8-129.4,2.1
			C704.6,1221.9,645.7,1224.6,612,1225L612,1225z M553.9,1198.4c30.7,1.5,88.9,1.8,119.5-0.3c-15.5-5.4-46.5-19.3-61.4-26.7
			c-15,7.4-45.9,21.2-61.4,26.7L553.9,1198.4z M725.2,1188.9l13.8,3.1c24.6-2.6,75.1-12,99.4-17.5c23.1-5.9,69.9-19.2,91.8-27.9
			l6.4-6.4c73.1-88,93.4-218,106.6-328.7C931.7,947.8,794,1070.7,639.8,1156.8C663.7,1168.6,699.5,1181.6,725.2,1188.9L725.2,1188.9
			z M440.1,1185.6l44.9,6.4c31.6-6.7,70.1-21.3,99.2-35.2c-154.2-86.1-291.9-209-403.5-345.3c13.3,110.6,33.5,240.7,106.6,328.7
			l6.4,6.4C335.6,1162.7,395.9,1177.7,440.1,1185.6L440.1,1185.6z M588.4,1130.7l23.6,12.4c169.6-90.5,317.9-226.3,435.6-377.4
			c8-100.2,8-206.3,0-306.5C929.9,308.1,781.6,172.3,612,81.8c-169.6,90.5-317.9,226.3-435.5,377.4c-8,100.2-8,206.3,0,306.5
			C288.4,910.4,429.6,1039.4,588.4,1130.7L588.4,1130.7z M1071.9,774.8c-11.4,118.7-28.7,249.4-93.9,351.8
			c210.4-97.8,271.8-274.6,178.8-485.1C1134.9,684.1,1100.6,736.5,1071.9,774.8L1071.9,774.8z M238.4,1123.3l7.6,3.3
			c-65.2-102.4-82.5-233.1-93.9-351.8c-28.7-38.3-63-90.7-84.9-133.3C-24.2,849.1,32.7,1022.8,238.4,1123.3L238.4,1123.3z
			 M1075.2,497.6c4.4,74.2,4.4,155.6,0,229.9c22.5-32.4,51.3-79.3,68-114.9C1126.5,576.9,1097.7,529.9,1075.2,497.6L1075.2,497.6z
			 M145.2,722.5l3.6,4.9c-4.4-74.2-4.4-155.6,0-229.9c-22.5,32.4-51.3,79.3-68,114.9C96.2,645.9,124.7,691.8,145.2,722.5
			L145.2,722.5z M1071.9,450.2c28.7,38.3,63,90.7,84.9,133.3C1250,372.8,1188.2,196.1,978,98.4
			C1043.2,200.8,1060.5,331.5,1071.9,450.2z M53.2,549.4l14,34.1c21.9-42.6,56.2-95,84.9-133.3c11.4-118.7,28.7-249.4,93.9-351.8
			C53,188.1-20.8,347.4,53.2,549.4z M639.8,68.2c154.2,86.1,291.9,209,403.5,345.3c-13-109.3-35.3-252.4-113.1-335.1
			C872.6,56.7,800.1,40.3,739,33C707.4,39.7,668.8,54.4,639.8,68.2L639.8,68.2z M182.3,398l-1.6,15.5
			C292.3,277.2,430,154.3,584.2,68.2C555.1,54.4,516.6,39.7,485,33c-61.1,7.3-133.6,23.6-191.2,45.4
			C218.2,159.2,196.6,291.9,182.3,398L182.3,398z M550.6,26.9c15.5,5.4,46.5,19.3,61.4,26.7c15-7.4,45.9-21.2,61.4-26.7
			C641.1,24.9,582.8,24.9,550.6,26.9z"/>
		<g>
			<path class="st0" d="M1754.5,936c-4.2-11-17.8-19.3-29.1-21.2c-27.2-3.8-57.5-1.5-85.8,0.4v-22.7c-0.8-17.4-1.1-34.8-0.8-52.2
				c0-6.4-1.9-18.2,0.8-23.4c4.5-9.1,17-7.9,25.3-8.3h0.8c10.2,0,13.6-8.7,9.4-17c-4.9-9.8-17.8-15.1-28.3-15.5
				c-12.8-0.8-31.4-0.4-42.7,8.3c-28,2.3-57.1-0.8-83.6-4.9c-23.1-3.8-7.6,23.1,7.6,25.3c22.3,3.8,43.8,4.9,65.8,4.9
				c0,3.8-0.4,7.6-0.8,11c-1.1,17-1.5,34-1.9,51c0,10.6,3,35.5-5.3,46.9c-6.4,0.4-12.5,0.8-18.9,1.1c-9.8,0.8-19.7,1.5-29.5,2.3
				l-14.7,1.9c-5.7,0-7.9,0-7.2,0.4c-13.6-6.4-34,2.3-19.3,17.4c13.6,13.6,26.5,15.9,45,14.4c17.4-1.5,35.2-3.4,52.6-4.5
				c3.4,1.5,6.8,2.3,9.4,2.3c7.2,0,13.2-1.5,17.8-3.4c16.6-0.4,33.3-0.4,49.5,0c23.4,0.4,48,5.7,71.4,4.2
				c10.6-0.8,16.3-7.9,12.5-18.2l0,0L1754.5,936L1754.5,936z"/>
			<g>
				<path class="st0" d="M1910.2,813.5c0.8-1.1,1.5-1.9,2.3-3c11.7-15.9,28-37.8,27.2-58.6c-0.8-13.6-21.6-25-34-18.2
					c-17.4,9.5-28.7,31.8-40.4,47.3c-12.5,16.6-29.1,32.1-37.1,51.8c-7.6,18.5,24.2,32.1,37.8,25c11-5.7,19.7-13.6,27.6-22.7
					c-1.1,30.6-4.5,61.2-6.1,91.9c-1.5,2.3-1.9,5.3-1.1,9.5l0.8,6l0,0c2.3,19.7,50.3,44.6,52.2,18.2c2.3-43.1-4.2-85.8-8.3-128.5
					c-1.1-7.2-11.3-15.5-20.8-18.9l0,0L1910.2,813.5L1910.2,813.5z"/>
				<path class="st0" d="M2256.1,940.5c-7.2-9.5-18.1-15.1-29.9-15.1c-30.2,0.8-61.2,7.2-91.9,12.8c-0.8-18.2-1.5-36.3-2.6-54.4
					c23.8,1.5,49.5,1.9,70.3-6c20-7.6-6.8-29.9-17.8-31c-18.1-1.5-36.3,0-54.4,1.9c-1.9-33.3-5.3-66.9-4.2-99.8
					c0-16.6,7.6-23.4,17.8-26.5c3.8-0.8,7.9-1.5,11.7-2.3c12.9-1.1,28-0.8,39.3-7.2c8.7-4.9,0-17-3.8-21.5
					c-7.6-7.6-18.1-11-28.7-9.5c-39.7,6.4-78.2,15.5-116.4,25.7c0.8-5.3,0.8-10.2-0.8-15.9c-5.7-20.8-24.6-35.5-46.1-35.9
					c-7.9,0-11,6-8.7,12.8c1.1,4.2,4.9,7.6,9.1,10.2v0.8c0,2.7-0.8,5.3-1.9,7.6c-2.3,4.5-4.9,9.1-8.3,12.8
					c-7.6,10.6-15.1,20.8-14.4,34.4c0.8,15.9,25.3,34,40.8,27.2c21.2-9.5,43.9-17.8,66.5-24.6c-0.8,11,0,22.3,0,32.5V853
					c-5.3,2.3-6.8,7.9-3.8,14.4c1.1,1.9,2.3,3.8,3.8,5.3c0,70.7-1.1,141.4,0.8,212.1c-6.1,2.3-9.4,9.1-7.2,15.1
					c0,1.1,1.1,2.7,1.9,3.8c7.9,11.7,19.3,20.4,32.9,24.9c8.3,3,30.6,5.3,30.2-9.4c-0.8-50.7-3-101.7-5.3-152.3
					c38.2,3.4,80.1,5.3,116.4-6c10.2-3,8.7-13.2,3.8-20.4L2256.1,940.5L2256.1,940.5z"/>
			</g>
			<g>
				<path class="st0" d="M2465.2,626.7c17.4,10.6,37.4,22.3,57.5,26.1c5.7,1.1,13.2-0.4,14-7.2s-6.8-13.6-12.1-16.3
					c-15.9-8.3-33.3-12.8-49.1-21.5c-5.7-3-16.3-6-20.4,0.8C2450.8,615.4,2460.3,623.7,2465.2,626.7L2465.2,626.7z"/>
				<path class="st0" d="M2415.3,665.7c1.1-14.4-29.9-29.1-34.8-12.5c-9.4,32.1-16.3,64.7-23.1,97.2c-3.4,15.1-6.4,30.6-10.6,45.7
					c-4.9,17-13.2,33.7-15.5,51c-2.6,18.9,34.4,36.3,46.5,21.2c18.9-24.6,23.4-67.3,27.6-97.2C2410.8,736,2411.9,700.8,2415.3,665.7
					L2415.3,665.7L2415.3,665.7z"/>
				<path class="st0" d="M2462.5,715.6c38.9-11.7,84.3-19.7,127.8-17c-8.3,4.5-17,8.7-25.3,12.8c-22.3,10.6,12.5,35.9,28,31.4
					c29.9-8.3,60.9-15.5,87.7-31c9.1-5.3,2.3-17.8-2.3-23.1c-7.9-9.1-19.3-14-31.4-14.4c-34.8-1.1-68.8-6.4-104-3.4
					c-34.4,3-68.4,10.2-100.9,21.9C2426.3,698.9,2451.2,719,2462.5,715.6L2462.5,715.6L2462.5,715.6z"/>
				<path class="st0" d="M2470.5,888c14.4-1.9,25.3-6,34-18.2c2.6-3.8,3-7.2,1.9-10.6c7.6-7.2,15.5-14,23.4-20.8
					c16.3-13.6,35.9-25,49.5-42c6.8-8.3-6.8-21.2-12.5-25c-7.9-5.3-17.8-8.3-26.8-5.7l0,0c-3.4,1.1-6.8,2.7-9.8,4.2
					c-12.1,4.5-26.8,6-38.9,8.7c-15.5,3-31,5.3-46.5,6c-23.1,1.5,0,26.1,11.7,27.6c4.2,0.8,8.3,1.1,12.5,1.1
					c-13.6,11.7-26.1,24.6-37.4,38.2C2417.9,868.3,2458,889.4,2470.5,888L2470.5,888z"/>
				<path class="st0" d="M2570.3,814.2c-5.3,8.3,6.4,17.8,12.5,21.2c9.1,5.3,18.1,11,26.5,17c10.6,7.6,20.8,15.9,33.3,20.4
					c6.8,2.3,17,3.8,22.7-2.3c5.7-6,1.5-14.7-3.4-19.7c-17.4-17.8-44.6-26.8-66.9-37.4C2588.1,810.4,2575.6,805.9,2570.3,814.2
					L2570.3,814.2L2570.3,814.2z"/>
				<path class="st0" d="M2735.5,1013.8c-3.4-15.1-21.9-26.8-37.4-28.3c-45.7-8.3-91.9-8.7-138-4.9c-2.6,0-5.3,0.4-7.9,0.8
					c1.9-9.5,2.6-19.7,3.4-28.7c0-4.5,0.8-8.7,0.8-13.2c11-1.5,22.3-4.2,29.9-12.1c6.4-7.2,3.4-14-1.9-20.8
					c-12.5-15.5-29.5-26.8-48.8-32.1c-7.2-2.3-22.7-4.2-23.4,7.6c0,9.5-1.1,18.9-2.3,28.3h-6.1c-9.1,1.1-21.9,3.4-32.9,3.4
					c-6.8-10.6-26.8-16.6-34.4-7.9c-7.6,9.1,0,21.2,8.3,27.6c13.6,11,31.4,10.6,48,11h12.1c-2.6,12.5-5.7,25.3-4.5,38.2
					c0,1.1,0,2.3,0.8,3.4c-28.4,2.3-57.1,4.9-85.1,8.7c-9.8,1.1-14.4,7.9-9.4,17c5.3,10.2,18.1,15.1,28.7,15.9
					c89.6,5.7,180.7-29.9,268.8,2.7c12.9,4.5,35.5,3.4,31.4-15.9l0,0L2735.5,1013.8L2735.5,1013.8z"/>
			</g>
			<g>
				<path class="st0" d="M1546.9,230.9c22.7,10.6,46.9,18.5,71.4,23.4c7.6,1.1,15.9-1.1,15.9-9.8s-11.7-15.9-18.9-19.3
					c-26.5-11.7-68.8-11-86.2-37.4c-4.5-7.2-14-14-23.1-12.9c-8.3,1.1-12.1,6.4-7.9,14C1508.7,208.6,1526.5,221.8,1546.9,230.9
					L1546.9,230.9z"/>
				<path class="st0" d="M1573.8,354.1c-12.8,6.8-24.2,15.5-37.1,22.3c-5.7,3.4-11.7,6-18.2,8.3c-3.8,1.5-7.6,2.6-11.3,3.4h-5.3
					c-6.8-11.3-34-20.4-31.8-2.6c3.8,26.5,35.5,34,57.8,31.4c29.1-3,57.8-17.4,80.2-35.5C1624.8,367.8,1587.4,346.6,1573.8,354.1
					L1573.8,354.1L1573.8,354.1z"/>
				<path class="st0" d="M1606.3,453.2c-7.2,13.6-15.1,26.8-23.8,39.7c-6.4,9.8-18.2,31.8-31.4,32.9c-7.2,0.4-9.8,6-6.8,12.1
					c4.2,7.6,12.8,11.3,20.8,11.7c18.9,1.1,31.8-11.3,43.1-25c13.2-15.9,24.6-33.3,32.9-52.2
					C1647.9,457.7,1613.8,438.8,1606.3,453.2L1606.3,453.2L1606.3,453.2z"/>
				<path class="st0" d="M1885.3,382.9c-26.8-18.1-55.9-9.1-85.4-2.6c0-28.7-7.2-62,20.4-77.5c17-9.8-19.7-35.5-34.8-27.6l0,0
					c0,0-1.1,0.4-1.5,0.8c-14,7.6-29.1,12.9-44.6,16.6c-7.6,1.9-14.7,3-22.3,4.2c-1.9,0-17,3-18.2,1.5c-4.9-4.5-14.7-11.3-21.9-7.9
					c-7.2,3.4-6.8,9.8-2.3,15.1c18.9,22.3,50.3,24.2,80.5,18.5c-1.9,11-2.3,22.7-2.3,33.3s0,25-6.4,34.4
					c-19.3,4.5-38.2,9.1-57.1,13.6h-1.9c-12.5,3.8-7.9,17.4-1.9,24.6c9.1,10.2,22.7,15.5,35.9,13.2c18.9-3.8,40.4-5.7,56.3-15.5
					c6.4-1.5,12.8-3,19.3-4.5c11.7-2.6,23.4-4.9,35.2-7.2c7.2-1.5,14-2.6,21.2-3.8c3.4,0,15.1-3.8,17.4-3
					c21.9,7.6,35.9-12.9,14.7-26.8v0.8L1885.3,382.9L1885.3,382.9z"/>
			</g>
			<g>
				<path class="st0" d="M2005.9,227.1c25.3,15.9,59,31,89.6,29.1c7.6,0,11-5.3,8.3-12.1c-2.6-7.6-12.5-12.9-19.7-14.4
					c-24.2-4.9-46.9-6.8-69.9-17.8C1998.3,204.1,1990.8,217.7,2005.9,227.1L2005.9,227.1z"/>
				<path class="st0" d="M2053.9,337.5c-12.8,5.3-24.9,12.1-36.3,19.7l-15.5,9.8c-2.7,1.5-14,6.4-14.7,10.2c-0.8,0-1.1,0-1.9-0.4
					c-8.3-0.8-17.8,2.3-15.5,12.1c4.5,19.3,29.1,25.7,45.4,18.5c22.7-10.2,49.9-24.6,68.8-41.6
					C2098.9,352.6,2066.4,332.6,2053.9,337.5L2053.9,337.5L2053.9,337.5z"/>
				<path class="st0" d="M2099.2,402.5c-4.9-3-21.6-8.3-24.6,0.8c-3.8,11-8.3,21.9-12.9,32.5c-2.3,5.3-5.3,18.5-10.6,24.2
					c-2.6,0.4-4.9,1.5-6.1,3.8c-3,5.3,2.3,11.7,6.1,15.1c13.6,11.7,29.9,9.8,39.7-4.9s15.5-32.5,20.8-49.9
					C2114.4,414.6,2107.2,407.1,2099.2,402.5L2099.2,402.5z"/>
				<path class="st0" d="M2401.3,382.5c-2.6-3.8-6.1-7.6-9.4-11c8.7-10.2,16.6-21.9,20.8-33.6c14.4-11.7,27.6-26.8,39.3-42.3
					c5.3-7.2,14.7-17.4,15.9-26.8c1.1-9.8-7.2-19.7-14.4-25.3c-16.3-12.5-40.8-15.1-60.9-14.4c-17.4,1.1-1.1,20.8,8.7,21.9
					c0.8,0,6.1,0.8,11.3,1.9c-1.1,1.1-2.3,2.3-3.4,3.4c-7.6,8.3-15.5,17.4-23.4,25.3c-12.9-5.3-27.2-5.7-40.4-1.1
					c-3.8,1.5-7.6,3-10.6,5.3c0-1.1,0-1.9-0.8-3c-4.9-20.8-11.3-38.2-28-49.5c11.7-15.5,20.8-29.5,11.3-48.4
					c-7.2-11.7-20.4-17.8-33.6-15.5l-4.2,1.1c-6.8,1.5-7.9,5.3-6.8,9.8c-7.6,10.2-15.5,20-23.8,29.5c-3.4,3.4-6.4,6.8-9.8,10.6
					c0-3.4,0-6.4,0.8-9.8c1.5-25.3,3.8-48.8,26.5-64.3c2.3-1.5,4.5-2.6,6.8-3.8c19.7-4.5,39.3-9.8,59-15.1
					c23.1-6.1-10.6-34.8-24.2-33.3c-26.5,3.4-57.1,9.1-79.8,24.9c-5.3,1.1-10.6,1.9-15.9,2.7c-21.9,3.4-57.8,11.3-74.9-7.2
					c-9.1-10.6-37.1-10.2-22.7,6.4c21.6,25.7,54.8,31.4,86.6,31c-4.9,13.2-6.4,27.2-7.9,41.6c-3,26.1-4.9,52.6-7.6,79
					c-4.5,50.3-8.7,100.6-15.9,150.5c-3.8,26.1-7.9,52.2-13.2,77.9c-2.3,11.3-4.5,23.1-8.3,34.4c-1.1,3.4-2.6,7.2-4.2,10.6
					c-12.1-5.7-26.1-6.8-26.1,5.3c0,26.1,14,46.5,40.1,52.2c29.9,6.8,40.1-18.2,46.5-42.3c15.1-55.6,19.7-115.3,24.2-172.8
					c3-37,4.9-74.5,7.2-111.9c9.1,3.8,18.9,4.5,24.9,1.1c8.7-5.3,16.6-11.7,23.8-18.9c0,3.8,1.5,7.9,1.9,10.6
					c1.1,10.6,2.3,21.2,2.6,31.8c0.8,20.4-2.3,40.5,0,60.9l0,0c3,14,24.9,26.5,39.3,24.2c1.9,1.9,4.2,3.4,5.3,4.2
					c6.8,4.5,17,9.1,26.1,7.9l0,0c2.3,6,4.5,12.1,6.1,18.5c3.8,12.9,5.7,26.1,6.4,39.7c0,12.9,0,25.3-2.6,37.8
					c-0.8,5.3-2.6,10.2-5.3,14.7c-1.1,2.3-3,4.5-5.3,6c-6.4-2.7-14-4.2-20-1.9c-8.7,3-11,12.1-6.1,19.7
					c14.4,22.7,50.7,38.9,74.9,21.2c24.2-17.8,20.8-58.6,18.1-84.7c-3-29.5-8.7-61.6-25.7-86.6L2401.3,382.5L2401.3,382.5
					L2401.3,382.5z"/>
				<path class="st0" d="M2261.8,397.6c1.1,26.8,1.1,60.1,12.5,84.7c3.8,8.3,15.1,14.7,23.4,17c5.3,1.5,18.9,3,21.2-4.9
					c8.7-28-7.9-65-19.7-90.4C2295.1,395.4,2261.1,379.1,2261.8,397.6L2261.8,397.6z"/>
				<path class="st0" d="M2527.6,445.6c-14-14.7-36.7-21.9-54.8-31.4c-6.8-3.4-21.2-8.3-26.1,0.8c-4.9,9.1,6.8,18.9,12.9,23.1
					c17.4,11.3,34.4,26.5,54.8,31.4C2531.3,473.6,2538.9,457.7,2527.6,445.6L2527.6,445.6z"/>
			</g>
		</g>
	</g>
</g>
</svg>
